<svg xmlns="http://www.w3.org/2000/svg" viewBox="0 0 48 48" width="48" height="48">
  <rect width="48" height="48" rx="10" fill="#2496ED" opacity="0.15"/>
  <g transform="translate(6,10)">
    <path d="M35.2 16.3c-.7-.5-2.3-.7-3.5-.4-.2-1.3-.8-2.4-1.6-3.3l-.5-.5-.5.4c-.6.5-1.1 1.2-1.4 2-.3.8-.4 1.6-.3 2.3-1-.5-2.7-.6-4-.2H4.3c-.4 1.5-.3 3.2.2 4.7.6 1.7 1.6 3 3 4 1.5 1.1 3.8 1.7 6.4 1.7 1.6 0 3.2-.2 4.7-.6 1.3-.4 2.4-.9 3.5-1.7 1-.7 1.8-1.6 2.5-2.6 1.1-1.5 1.7-3.3 2.1-4.9h.7c1.1 0 2.1-.4 2.8-1 .5-.4.8-.9 1-1.4l.2-.5-.5-.3z" fill="#2496ED"/>
    <rect x="7" y="11" width="3.5" height="3.2" rx="0.4" fill="#2496ED" stroke="white" stroke-width="0.5"/>
    <rect x="11.5" y="11" width="3.5" height="3.2" rx="0.4" fill="#2496ED" stroke="white" stroke-width="0.5"/>
    <rect x="16" y="11" width="3.5" height="3.2" rx="0.4" fill="#2496ED" stroke="white" stroke-width="0.5"/>
    <rect x="11.5" y="7" width="3.5" height="3.2" rx="0.4" fill="#2496ED" stroke="white" stroke-width="0.5"/>
    <rect x="7" y="15" width="3.5" height="3.2" rx="0.4" fill="#2496ED" stroke="white" stroke-width="0.5"/>
    <rect x="11.5" y="15" width="3.5" height="3.2" rx="0.4" fill="#2496ED" stroke="white" stroke-width="0.5"/>
    <rect x="16" y="15" width="3.5" height="3.2" rx="0.4" fill="#2496ED" stroke="white" stroke-width="0.5"/>
    <rect x="20.5" y="11" width="3.5" height="3.2" rx="0.4" fill="#2496ED" stroke="white" stroke-width="0.5"/>
    <rect x="20.5" y="15" width="3.5" height="3.2" rx="0.4" fill="#2496ED" stroke="white" stroke-width="0.5"/>
  </g>
</svg>
